<svg width="37" height="64" viewBox="0 0 37 64" fill="none" xmlns="http://www.w3.org/2000/svg">
<path d="M30 16.5H31.5C34.2614 16.5 36.5 18.7386 36.5 21.5V58.5C36.5 61.2614 34.2614 63.5 31.5 63.5H6C3.23858 63.5 1 61.2614 1 58.5V21.5C1 18.7386 3.23858 16.5 6 16.5H19.5M30 16.5V8.5M30 16.5H19.5M30 8.5H22M30 8.5V1H22V8.5M19.5 16.5V8.5H22" stroke="black"/>
<path d="M11 36.5L20.5 23L18.5 32H27L14 55L18.5 36.5H11Z" stroke="black"/>
<path d="M4.49999 25.5V37.5M4.49999 45.5V54" stroke="black"/>
<path d="M28 3V5.5" stroke="black"/>
</svg>
