<svg width="37" height="22" viewBox="0 0 37 22" fill="none" xmlns="http://www.w3.org/2000/svg">
<path d="M33.8242 7.24987H33.2139V3.06296C33.2139 1.85668 32.2361 0.875 31.0342 0.875H2.18359C1.609 0.875 1.0465 1.10906 0.642175 1.51664C0.230762 1.92969 0.00390625 2.47903 0.00390625 3.06296V18.9371C0.00390625 19.521 0.230762 20.0703 0.641106 20.4823C1.0465 20.891 1.609 21.125 2.18359 21.125H31.0342C32.2361 21.125 33.2139 20.1434 33.2139 18.9371V14.7502H33.8242C35.0261 14.7502 36.0039 13.7686 36.0039 12.5617V9.43833C36.0039 8.23149 35.0261 7.24987 33.8242 7.24987ZM34.8789 12.5617C34.8789 13.1484 34.4059 13.6252 33.8242 13.6252H32.6514C32.3405 13.6252 32.0889 13.8768 32.0889 14.1877V18.9371C32.0889 19.5232 31.616 20 31.0342 20H2.18359C1.90617 20 1.63538 19.8869 1.43867 19.6891C1.24202 19.4913 1.12891 19.2172 1.12891 18.9371V3.06296C1.12891 2.78277 1.24202 2.50867 1.4398 2.30983C1.63538 2.11318 1.90617 2 2.18359 2H31.0342C31.616 2 32.0889 2.47683 32.0889 3.06296V7.81237C32.0889 8.12326 32.3405 8.37487 32.6514 8.37487H33.8242C34.4059 8.37487 34.8789 8.85164 34.8789 9.43833V12.5617Z" fill="black"/>
<path d="M20.8164 10.4381H17.4408V7.0625C17.4408 6.75161 17.1892 6.5 16.8783 6.5C16.5675 6.5 16.3158 6.75161 16.3158 7.0625V10.4381H12.9414C12.6305 10.4381 12.3789 10.6897 12.3789 11.0006C12.3789 11.3115 12.6305 11.5631 12.9414 11.5631H16.3158V14.9375C16.3158 15.2484 16.5675 15.5 16.8783 15.5C17.1892 15.5 17.4408 15.2484 17.4408 14.9375V11.5631H20.8164C21.1273 11.5631 21.3789 11.3115 21.3789 11.0006C21.3789 10.6897 21.1273 10.4381 20.8164 10.4381Z" fill="black"/>
</svg>
