<svg width="37" height="36" viewBox="0 0 37 36" fill="none" xmlns="http://www.w3.org/2000/svg">
<path d="M25.0639 18.935C25.396 18.4248 25.3153 17.7883 24.8238 17.0434C24.5777 16.6702 24.3355 16.3101 24.1037 15.9652C23.197 14.6172 22.2592 13.2223 22.2592 12.6833C22.2592 12.5007 22.2753 12.2551 22.2931 11.9724C22.3705 10.7481 22.476 9.07194 21.8409 8.02704C21.6916 7.78157 21.8264 7.43603 22.17 6.70661C22.5222 5.95802 22.9606 5.02602 22.9606 3.81639C22.9606 1.24718 15.8482 0.95882 12.7374 0.95622C12.3727 0.908784 10.1632 0.658767 7.67664 1.17992C4.05489 1.93907 1.61141 3.97234 0.611508 7.05995C-1.06908 12.2489 1.11788 16.3301 2.56502 19.0312C3.05189 19.9395 3.5118 20.7977 3.5118 21.2035C3.5118 23.1822 3.45283 24.4341 2.63682 25.1309C1.3856 26.1993 1.15394 27.6141 1.14468 27.6738C1.10082 27.9584 1.24687 28.2378 1.50517 28.3642L15.2452 35.0786C15.3362 35.1228 15.435 35.1453 15.5334 35.1453C15.6481 35.1453 15.7626 35.1153 15.8648 35.0557C16.0546 34.9449 16.1761 34.746 16.1889 34.5269L16.4306 30.3541C16.4438 30.1258 16.3374 29.9073 16.1496 29.7772L15.1897 29.1107V28.346C15.8556 28.5325 16.8303 28.7351 17.9286 28.7351C20.4725 28.7351 21.9313 27.9652 21.9313 26.623C21.9313 25.6621 22.0304 23.9885 22.0312 23.9717C22.0451 23.7422 21.9377 23.5224 21.7483 23.3916L19.3894 21.7685L22.1169 21.4557C22.4377 21.4191 22.6838 21.1543 22.698 20.832L22.7483 19.6706C23.5323 19.7125 24.6107 19.6318 25.0639 18.935ZM22.2304 18.2941C22.046 18.2654 21.8555 18.314 21.7093 18.4319C21.5634 18.5505 21.475 18.7255 21.467 18.9133L21.4107 20.2152L17.4993 20.6639C17.2272 20.6946 17.0031 20.8915 16.9372 21.1567C16.8709 21.4228 16.9763 21.701 17.2018 21.8568L20.7001 24.2637C20.67 24.8246 20.6184 25.897 20.6184 26.6225C20.6184 27.0155 19.6123 27.4218 17.9285 27.4218C16.2095 27.4218 14.8042 26.8347 14.7902 26.8288C14.5873 26.7422 14.355 26.7642 14.1712 26.8859C13.9875 27.007 13.8767 27.2127 13.8767 27.4327V29.4531C13.8767 29.6679 13.9821 29.8698 14.1587 29.9921L15.0984 30.6454L14.9349 33.4657L2.57769 27.4268C2.71805 27.0678 2.98919 26.5564 3.48922 26.1295C4.82443 24.9885 4.82443 23.1501 4.82443 21.2034C4.82443 20.4681 4.36192 19.6053 3.72185 18.4105C2.37998 15.9061 0.351743 12.121 1.86013 7.46478C2.71578 4.82328 4.75198 3.14318 7.91203 2.47208C10.3542 1.95353 12.5782 2.25862 12.6003 2.26251C12.631 2.26641 12.6625 2.26901 12.6932 2.26901C17.6536 2.26901 21.648 3.11572 21.648 3.81639C21.648 4.7323 21.2942 5.4843 20.9821 6.14777C20.5914 6.97775 20.1876 7.83615 20.7196 8.70983C21.14 9.4014 21.0421 10.9592 20.9831 11.8899C20.9633 12.2052 20.9465 12.4796 20.9465 12.6835C20.9465 13.6231 21.8139 14.9128 23.0144 16.698C23.2443 17.0397 23.4842 17.3967 23.7286 17.7665C23.9247 18.0639 23.9467 18.2087 23.9622 18.2178C23.7807 18.3716 22.9348 18.4114 22.2304 18.2941Z" fill="black"/>
<path d="M32.722 16.6094C32.3596 16.6094 32.0657 16.9029 32.0657 17.2657C32.0657 17.6285 32.3596 17.922 32.722 17.922C33.8079 17.922 34.6911 18.8053 34.6911 19.8911C34.6911 20.977 33.8079 21.8602 32.722 21.8602H23.861V23.173H33.0503V23.1399C34.704 22.9725 36.0039 21.5884 36.0039 19.8913C36.0039 18.0817 34.5316 16.6094 32.722 16.6094Z" fill="black"/>
<path d="M33.0502 24.4861H23.8608V25.7989H33.0502V24.4861Z" fill="black"/>
</svg>
