<svg width="36" height="36" viewBox="0 0 36 36" fill="none" xmlns="http://www.w3.org/2000/svg">
<path d="M29.4719 18C30.1523 17.3481 30.7726 16.6937 31.3226 16.0437C33.75 13.1752 34.5547 10.6738 33.5884 9C32.8372 7.69894 31.1253 7.06764 28.6396 7.17403C27.1984 7.23577 25.5376 7.53986 23.7361 8.06546C23.5116 7.15021 23.255 6.2856 22.9671 5.4841C21.6967 1.9476 19.9326 0 18 0C16.7109 0 15.4764 0.873421 14.4301 2.52597C13.5637 3.89428 12.8202 5.80098 12.2655 8.06546C11.3603 7.80204 10.4828 7.59186 9.64443 7.44043C5.94669 6.77237 3.3779 7.32623 2.41157 9C1.44524 10.6738 2.24995 13.1752 4.67735 16.0437C5.22738 16.6937 5.84773 17.3481 6.52806 18C5.84773 18.6519 5.22738 19.3063 4.67735 19.9563C2.24995 22.8248 1.44524 25.3262 2.41157 27C3.05612 28.1164 4.42979 28.7488 6.38406 28.8287C6.5276 28.8346 6.67405 28.8375 6.82379 28.8375C8.36245 28.8375 10.2237 28.5277 12.2637 27.9336C12.4881 28.8493 12.7449 29.7142 13.0329 30.516C14.3034 34.0524 16.0674 36 18 36C19.9326 36 21.6967 34.0524 22.9672 30.5159C23.2551 29.7144 23.5117 28.8499 23.7361 27.9345C25.5377 28.4601 27.1985 28.7642 28.6397 28.8259C28.8199 28.8336 28.9956 28.8375 29.1675 28.8375C31.3687 28.8374 32.8919 28.2067 33.5886 26.9999C34.5549 25.3262 33.7502 22.8247 31.3228 19.9563C30.7726 19.3063 30.1523 18.6519 29.4719 18ZM32.5934 9.57447C33.289 10.7792 32.5061 12.8666 30.4456 15.3015C29.9069 15.9381 29.2974 16.5798 28.6268 17.2193C27.4493 16.1694 26.1224 15.1335 24.6829 14.1416C24.5438 12.4006 24.3105 10.735 23.9904 9.19141C28.3333 7.92046 31.6954 8.01912 32.5934 9.57447ZM18.0006 24.4402C17.0501 23.9742 16.0949 23.4652 15.1572 22.9239C14.2105 22.3773 13.2962 21.8071 12.4221 21.2205C12.3512 20.1701 12.3145 19.0933 12.3145 18C12.3145 16.9075 12.3522 15.8323 12.4239 14.7783C13.2975 14.1921 14.2111 13.6224 15.1572 13.0761C16.0955 12.5344 17.0509 12.0253 18.001 11.5596C18.9458 12.0232 19.8964 12.5297 20.8428 13.0761C21.7895 13.6227 22.7038 14.1929 23.5779 14.7795C23.6488 15.8299 23.6855 16.9067 23.6855 18C23.6855 19.0933 23.6488 20.17 23.5779 21.2205C22.7037 21.807 21.7895 22.3772 20.8428 22.9239C19.8976 23.4695 18.9484 23.9755 18.0006 24.4402ZM11.2234 20.3876C10.1424 19.6095 9.13583 18.8088 8.22266 18C9.13629 17.1909 10.1432 16.3899 11.2248 15.6114C11.1866 16.3981 11.1655 17.1944 11.1655 18C11.1655 18.8053 11.1854 19.6023 11.2234 20.3876ZM24.7767 15.6124C25.8577 16.3905 26.8642 17.1912 27.7774 18C26.8642 18.8088 25.8577 19.6094 24.7767 20.3876C24.8147 19.6024 24.8345 18.8053 24.8345 18C24.8345 17.1947 24.8147 16.3977 24.7767 15.6124ZM18 1.14894C19.3911 1.14894 20.8074 2.87066 21.8858 5.87252C22.1678 6.65763 22.4188 7.50684 22.6376 8.40784C21.9418 8.63809 21.2288 8.89805 20.5017 9.18873C20.2071 9.30654 20.0637 9.6408 20.1816 9.93539C20.2994 10.2301 20.6335 10.3734 20.9282 10.2556C21.5964 9.98839 22.2514 9.7488 22.8894 9.53625C23.1328 10.7305 23.3227 12.0012 23.4559 13.3251C22.7949 12.8995 22.1146 12.4839 21.4172 12.0812C18.6989 10.5118 15.9391 9.25767 13.3642 8.40707C14.4388 3.97969 16.2356 1.14894 18 1.14894ZM5.55445 15.3015C3.49387 12.8666 2.71106 10.7792 3.40663 9.57447C4.10211 8.36977 6.30126 8.00387 9.44023 8.57099C11.6377 8.96791 14.1194 9.78403 16.6798 10.9376C15.9773 11.2989 15.2754 11.6813 14.5828 12.0811C13.8865 12.4832 13.2071 12.8982 12.547 13.3231C12.6217 12.5868 12.7125 11.8622 12.8229 11.1539C12.8719 10.8404 12.6574 10.5466 12.3439 10.4978C12.031 10.4487 11.7366 10.6633 11.6878 10.9768C11.5277 12.0028 11.4058 13.0602 11.3191 14.1403C9.87881 15.1325 8.55126 16.1688 7.37314 17.2193C6.70269 16.5797 6.09307 15.938 5.55445 15.3015ZM3.40663 26.4255C2.71106 25.2208 3.49394 23.1334 5.55445 20.6985C6.09314 20.0619 6.70269 19.4202 7.37321 18.7807C8.5508 19.8306 9.87766 20.8665 11.3172 21.8584C11.4563 23.6002 11.6898 25.2666 12.0101 26.8109C7.63877 28.0939 4.28886 27.9535 3.40663 26.4255ZM21.8858 30.1275C20.8074 33.1293 19.3911 34.8511 18 34.8511C16.609 34.8511 15.1926 33.1293 14.1143 30.1275C13.3593 28.0261 12.8253 25.4689 12.544 22.6749C13.2051 23.1005 13.8854 23.5161 14.5828 23.9188C15.2746 24.3182 15.9761 24.7004 16.6784 25.0617C16.0027 25.3655 15.3291 25.6478 14.6597 25.9065C14.3638 26.021 14.2166 26.3535 14.331 26.6495C14.419 26.8774 14.6365 27.017 14.867 27.017C14.9357 27.017 15.0058 27.0045 15.0739 26.9782C17.1708 26.1677 19.305 25.1384 21.4173 23.9189C22.1147 23.5162 22.795 23.1006 23.456 22.675C23.3227 23.9989 23.1329 25.2697 22.8894 26.4638C22.2516 26.2514 21.5966 26.0117 20.9284 25.7446C20.6339 25.6268 20.2995 25.7701 20.1817 26.0648C20.0639 26.3594 20.2073 26.6936 20.5019 26.8114C21.2289 27.1021 21.9419 27.3621 22.6377 27.5923C22.4188 28.4932 22.1679 29.3424 21.8858 30.1275ZM32.5934 26.4255C31.6955 27.9808 28.3335 28.0795 23.9904 26.8086C24.3105 25.265 24.5438 23.5994 24.6829 21.8584C26.1224 20.8665 27.4493 19.8307 28.6268 18.7807C29.2973 19.4203 29.9069 20.062 30.4456 20.6985C32.5062 23.1334 33.289 25.2208 32.5934 26.4255Z" fill="black"/>
<path d="M18 14.3999C16.015 14.3999 14.4 16.0148 14.4 17.9999C14.4 19.985 16.015 21.5999 18 21.5999C19.9851 21.5999 21.6 19.985 21.6 17.9999C21.6 16.0148 19.9851 14.3999 18 14.3999ZM18 20.451C16.6485 20.451 15.549 19.3514 15.549 17.9999C15.549 16.6484 16.6485 15.5488 18 15.5488C19.3516 15.5488 20.4511 16.6484 20.4511 17.9999C20.4511 19.3514 19.3516 20.451 18 20.451Z" fill="black"/>
</svg>
