<svg width="36" height="36" viewBox="0 0 36 36" fill="none" xmlns="http://www.w3.org/2000/svg">
<path d="M23.0721 24.6835C23.0721 30.2074 18.594 34.6855 13.07 34.6855C7.546 34.6855 3.06799 30.2074 3.06799 24.6835C3.06801 23.1123 3.69305 20.8597 4.67545 18.3144C5.65124 15.7861 6.95541 13.0286 8.26422 10.4704C9.57228 7.91368 10.8809 5.56397 11.8629 3.853C12.3537 2.99771 12.7626 2.30253 13.0487 1.82148C13.0559 1.8093 13.0631 1.79726 13.0701 1.78535C13.0772 1.79726 13.0844 1.8093 13.0916 1.82148C13.3777 2.30253 13.7866 2.99771 14.2774 3.85299C15.2593 5.56397 16.568 7.91368 17.876 10.4704C19.1848 13.0286 20.4889 15.7861 21.4647 18.3144C22.4471 20.8597 23.0721 23.1123 23.0721 24.6835Z" stroke="black"/>
<path d="M18.5116 19.4541C18.3317 18.9882 18.136 18.5033 17.9245 18.0002C14.1328 18.0001 8.21523 18 8.21523 18C8.21523 18 7.80264 19.0012 7.62081 19.4728C6.36812 22.7227 6.23291 24.1995 6.23291 24.6836C6.23291 28.4534 9.29994 31.5205 13.0697 31.5205C16.8396 31.5205 19.9066 28.4534 19.9066 24.6836C19.9067 24.1981 19.7707 22.7166 18.5116 19.4541Z" fill="black"/>
<path d="M28 35H33.5V29.25M28 1H33.5V6.5M33.5 6.5H29.5M33.5 6.5V12.5M33.5 12.5H29.5M33.5 12.5V18M33.5 18H28M33.5 18V23.5M33.5 23.5H29.5M33.5 23.5V29.25M33.5 29.25H29.5" stroke="black" stroke-width="1.2" stroke-linecap="round" stroke-linejoin="round"/>
</svg>
